<svg xmlns="http://www.w3.org/2000/svg" viewBox="-64 -50 580 580" width="100%" height="100%" shape-rendering="geometricPrecision" text-rendering="geometricPrecision" image-rendering="optimizeQuality" fill-rule="evenodd" clip-rule="evenodd">
<path d="M171.669 299.217l32.23 95.459 17.973-45.164-8.813-9.625c-6.62-9.679-4.347-20.66 7.926-22.645 4.142-.674 8.801-.257 13.308-.257 4.769 0 10.081-.442 14.607.554 11.387 2.515 12.576 13.56 6.898 22.348l-8.813 9.625 17.973 45.164 29.473-96.516c-3.592-5.197-6.753-10.973-9.583-16.768l-3.791 3.591c-16.705 16.121-33.559 23.847-51.026 23.679-17.305-.165-34.239-8.098-51.325-23.299l-1.422-1.263c-1.563 5.122-3.346 10.285-5.615 15.117zm225.154-34.961c31.801 0 60.599 12.896 81.441 33.736 20.842 20.842 33.736 49.64 33.736 81.44 0 31.801-12.894 60.599-33.736 81.441-20.842 20.842-49.64 33.736-81.441 33.736-31.801 0-60.598-12.894-81.44-33.736a115.594 115.594 0 01-17.247-22.033H0c0-129.268 84.58-80.74 162.725-145.362 2.384-5.34 4.206-11.242 5.852-16.945-12.864-11.286-23.328-22.29-26.572-44.357a23.364 23.364 0 01-7.501-2.711c-5.764-3.273-9.693-8.627-12.27-14.601-2.797-6.481-4.056-14.006-4.344-19.666-.64-12.492.383-29.069 11.435-34.339-1.581-28.335 3.387-73.621-25.856-82.463C160.96 7.353 227.225-31.287 276.983 31.911c55.721 2.926 78.174 86.257 42.603 130.218l-.17 2.169c3.949-.018 7.769.835 11.188 2.659 4.568 2.441 8.053 6.347 9.838 11.889 1.547 4.804 1.669 10.722-.234 17.759-.113.424-.249.837-.403 1.239l-7.219 20.442c-1.565 4.447-3.08 7.648-6.769 10.58l.018.023c-2.883 2.294-6.038 3.496-10.171 3.793-1.885 18.773-10.836 29.544-22.83 41.14 3.052 6.503 6.511 13.091 10.508 18.787a68.964 68.964 0 002.452 3.287 147.711 147.711 0 006.819 4.963c.907-.973 1.831-1.928 2.77-2.867 20.842-20.84 49.639-33.736 81.44-33.736zm-19.513 67.986l-.013-2.551c.079-5.386 1.118-8.92 8.692-8.804l19.407.24c4.033-.018 6.714.776 8.558 2.739 1.822 1.943 2.439 4.645 2.398 8.49l.014 26.969c9.504 0 19.011.041 28.514-.007 5.299.078 8.781 1.105 8.67 8.895l-.234 20.087c.018 4.106-.733 6.839-2.602 8.719-1.91 1.922-4.566 2.575-8.348 2.53l-26 .013-.012 27.217c.009 3.709-.621 6.331-2.4 8.223-1.842 1.967-4.527 2.758-8.561 2.738l-19.404.24c-7.569.116-8.611-3.418-8.695-8.803.048-9.871.009-19.745.005-29.615l-26.286-.011c-3.641.011-6.218-.656-8.081-2.532-1.869-1.88-2.62-4.613-2.601-8.719l-.234-20.087c-.109-7.786 3.371-8.82 8.67-8.893 9.509.048 19.023.01 28.532.005l.011-27.083zm19.513-50.669c54.047 0 97.86 43.812 97.86 97.859 0 54.048-43.813 97.86-97.86 97.86s-97.859-43.812-97.859-97.86c0-54.047 43.812-97.859 97.859-97.859zM130.266 179.242c3.934-11.255 13.08-7.635 26.11-2.88-5.204-23.601.941-42.038 19.415-54.817 39.421-27.273 51.237-3.931 93.965-38.336 24.546 12.363 46.509 33.262 35.317 98.558 11.845-8.976 28.929-8.141 23.555 11.744l-7.341 20.79c-1.753 4.975-2.928 6.776-9.216 6.442-2.774-.147-5.572-1.218-8.357-3.06 2.572 30.676-12.322 40.689-30.957 58.673-11.787 11.192-25.391 20.27-42.186 20.347a58.851 58.851 0 01-2.724-.081c-21.988-1.432-39.68-18.184-54.88-32.253-11.158-10.385-19.456-21.706-20.014-44.826-4.528 1.386-8.809 1.638-12.543-.487-7.444-4.234-10.16-16.569-10.563-24.468-.164-3.171-.028-12.111.419-15.346z"/></svg>