<?xml version="1.0" standalone="no"?>
<!DOCTYPE svg PUBLIC "-//W3C//DTD SVG 20010904//EN"
 "http://www.w3.org/TR/2001/REC-SVG-20010904/DTD/svg10.dtd">
<svg version="1.0" xmlns="http://www.w3.org/2000/svg"
 width="100%" height="100%" viewBox="150 150 1650 2000"
 preserveAspectRatio="xMidYMid meet">
<metadata>
Created by potrace 1.16, written by Peter Selinger 2001-2019
</metadata>
<g transform="translate(0.000000,2009.000000) scale(0.100000,-0.100000)"
fill="#000000" stroke="none">
<path d="M9745 17003 c-1009 -49 -1877 -322 -2670 -840 -535 -350 -1060 -847
-1463 -1386 -426 -568 -736 -1212 -905 -1882 -81 -318 -126 -587 -164 -965
-17 -164 -18 -479 -18 -5229 l0 -5053 170 -117 c273 -189 348 -229 940 -513
424 -204 780 -351 1150 -476 216 -73 570 -182 592 -182 11 0 13 596 13 3038
l0 3038 243 -121 c571 -285 1118 -449 1754 -526 226 -27 771 -38 1016 -20 758
56 1393 229 2027 552 518 264 991 616 1431 1065 855 875 1369 1897 1543 3069
51 345 61 490 61 925 0 424 -10 575 -56 895 -166 1157 -659 2166 -1478 3029
-939 990 -2040 1541 -3346 1676 -236 24 -608 35 -840 23z m595 -2959 c560 -65
1061 -315 1481 -735 446 -448 701 -981 770 -1609 16 -150 16 -806 0 -796 -3 2
-6 -22 -6 -54 0 -33 -4 -56 -9 -52 -5 3 -6 -2 -3 -12 8 -20 -2 -68 -12 -61 -4
2 -6 -9 -3 -24 2 -16 -1 -32 -7 -35 -6 -4 -11 -21 -11 -38 0 -20 -4 -29 -12
-25 -9 3 -14 -6 -15 -27 -4 -77 -9 -104 -15 -99 -5 2 -8 -4 -9 -14 -1 -33 -7
-54 -21 -70 -7 -9 -12 -23 -10 -32 1 -9 -9 -28 -23 -43 -14 -16 -21 -28 -15
-28 6 0 8 -5 3 -12 -4 -7 -8 -20 -10 -28 -1 -8 -7 -16 -12 -18 -6 -2 -11 -12
-11 -23 0 -10 -5 -19 -11 -19 -5 0 -7 -4 -4 -10 3 -5 1 -10 -5 -10 -6 0 -9 -4
-5 -9 3 -6 -3 -14 -12 -20 -10 -6 -12 -11 -6 -11 9 0 8 -6 -4 -19 -9 -11 -20
-18 -24 -15 -4 2 -5 -5 -2 -16 3 -12 -1 -22 -10 -26 -9 -3 -13 -12 -10 -20 3
-8 0 -14 -6 -14 -6 0 -11 -7 -11 -15 0 -8 -5 -15 -11 -15 -5 0 -7 -4 -4 -10 3
-5 -5 -21 -19 -34 -14 -13 -26 -28 -26 -35 0 -6 -5 -11 -12 -11 -6 0 -8 -3 -5
-7 4 -3 2 -12 -4 -20 -6 -7 -8 -13 -3 -13 5 0 4 -4 -1 -8 -6 -4 -42 -43 -80
-87 -119 -136 -375 -393 -480 -481 -359 -303 -774 -489 -1258 -562 -162 -24
-607 -24 -767 1 -148 23 -337 68 -470 113 -138 46 -399 175 -530 261 -400 263
-744 651 -949 1067 -200 408 -281 804 -268 1306 12 436 97 790 276 1145 290
574 809 1056 1380 1280 383 149 837 202 1291 149z"/>
</g>
</svg>
