<svg width="21" height="21" viewBox="0 0 21 21" fill="none" xmlns="http://www.w3.org/2000/svg">
<path d="M20.3848 9.88477H18.5391C18.1993 9.88477 17.9238 10.1602 17.9238 10.5C17.9238 10.8398 18.1993 11.1152 18.5391 11.1152H20.3848C20.7245 11.1152 21 10.8398 21 10.5C21 10.1602 20.7245 9.88477 20.3848 9.88477Z" fill="#84828A"/>
<path d="M19.5894 13.7563L18.3589 12.5259C18.1187 12.2856 17.7291 12.2856 17.4888 12.5259C17.2485 12.7661 17.2485 13.1557 17.4888 13.3959L18.7193 14.6264C18.9595 14.8667 19.3491 14.8667 19.5894 14.6264C19.8296 14.3861 19.8296 13.9966 19.5894 13.7563Z" fill="#84828A"/>
<path d="M19.5893 6.37353C19.3491 6.1333 18.9595 6.1333 18.7193 6.37353L17.4888 7.604C17.2485 7.84427 17.2485 8.23379 17.4888 8.47406C17.7291 8.71433 18.1186 8.71429 18.3589 8.47406L19.5893 7.2436C19.8296 7.00333 19.8296 6.6138 19.5893 6.37353Z" fill="#84828A"/>
<path d="M14.2324 2.50195C13.3083 2.50195 12.5407 3.18466 12.4073 4.0722L11.8461 4.63341C10.8693 5.6102 9.43085 6.19336 7.99805 6.19336H4.30664C3.50458 6.19336 2.82073 6.70774 2.56676 7.42383H2.46094C1.10398 7.42383 0 8.5278 0 9.88477C0 11.2417 1.10398 12.3457 2.46094 12.3457H2.56676C2.75244 12.8692 3.16788 13.2847 3.69141 13.4704V16.6523C3.69141 17.6701 4.51943 18.498 5.53715 18.498C6.55483 18.498 7.38281 17.6701 7.38281 16.6523V13.5762H7.99805C9.4308 13.5762 10.8693 14.1593 11.8461 15.1361L12.4073 15.6973C12.5407 16.5848 13.3083 17.2676 14.2325 17.2676C15.2501 17.2676 16.0781 16.4396 16.0781 15.4219V4.34766C16.0781 3.32994 15.2501 2.50195 14.2324 2.50195ZM2.46094 11.1152C1.78246 11.1152 1.23047 10.5632 1.23047 9.88477C1.23047 9.20629 1.78246 8.6543 2.46094 8.6543V11.1152ZM6.15234 16.6523C6.15234 16.9916 5.87635 17.2676 5.53711 17.2676C5.19787 17.2676 4.92188 16.9916 4.92188 16.6523V13.5762H6.15234V16.6523ZM7.38281 12.3457H4.30664C3.9674 12.3457 3.69141 12.0697 3.69141 11.7305V8.03906C3.69141 7.69982 3.9674 7.42383 4.30664 7.42383H7.38281V12.3457ZM12.3867 13.9595C11.3473 13.0599 10.011 12.501 8.60918 12.3736L8.60922 7.3959C10.011 7.2685 11.3473 6.70958 12.3867 5.80999V13.9595ZM14.8477 15.4219C14.8477 15.7611 14.5717 16.0371 14.2325 16.0371H14.2324C13.8932 16.0371 13.6172 15.7611 13.6172 15.4219V4.34766C13.6172 4.00842 13.8932 3.73242 14.2325 3.73242C14.5717 3.73242 14.8477 4.00842 14.8477 4.34766V15.4219Z" fill="#84828A"/>
</svg>
