<svg width="20" height="20" viewBox="0 0 20 20" fill="none" xmlns="http://www.w3.org/2000/svg">
<path d="M18.4923 14.6875L11.6252 2.81251C11.4607 2.52691 11.224 2.28968 10.9387 2.12473C10.6534 1.95978 10.3297 1.87292 10.0001 1.87292C9.67061 1.87292 9.34689 1.95978 9.06161 2.12473C8.77632 2.28968 8.53955 2.52691 8.37515 2.81251L1.50796 14.6875C1.34114 14.9717 1.25248 15.2949 1.251 15.6244C1.24951 15.9539 1.33524 16.2779 1.49949 16.5636C1.66374 16.8492 1.90065 17.0863 2.18617 17.2508C2.47169 17.4153 2.79565 17.5012 3.12515 17.5H16.8752C17.2047 17.5012 17.5286 17.4153 17.8141 17.2508C18.0997 17.0863 18.3366 16.8492 18.5008 16.5636C18.6651 16.2779 18.7508 15.9539 18.7493 15.6244C18.7478 15.2949 18.6592 14.9717 18.4923 14.6875ZM9.37515 8.12501C9.37515 7.95925 9.441 7.80028 9.55821 7.68307C9.67542 7.56586 9.83439 7.50001 10.0001 7.50001C10.1659 7.50001 10.3249 7.56586 10.4421 7.68307C10.5593 7.80028 10.6251 7.95925 10.6251 8.12501V11.25C10.6251 11.4158 10.5593 11.5747 10.4421 11.692C10.3249 11.8092 10.1659 11.875 10.0001 11.875C9.83439 11.875 9.67542 11.8092 9.55821 11.692C9.441 11.5747 9.37515 11.4158 9.37515 11.25V8.12501ZM10.0001 15C9.81473 15 9.63347 14.945 9.4793 14.842C9.32513 14.739 9.20497 14.5926 9.13401 14.4213C9.06306 14.25 9.04449 14.0615 9.08066 13.8796C9.11684 13.6978 9.20613 13.5307 9.33724 13.3996C9.46835 13.2685 9.6354 13.1792 9.81725 13.143C9.99911 13.1069 10.1876 13.1254 10.3589 13.1964C10.5302 13.2673 10.6766 13.3875 10.7797 13.5417C10.8827 13.6958 10.9376 13.8771 10.9376 14.0625C10.9376 14.3112 10.8389 14.5496 10.6631 14.7254C10.4872 14.9012 10.2488 15 10.0001 15Z" fill="#F4BE50"/>
</svg>
